<svg width="64" height="64" viewBox="0 0 64 64" fill="none" xmlns="http://www.w3.org/2000/svg">
<rect width="64" height="64" rx="16" fill="#14181F"/>
<path d="M16.1258 47.6656C15.2471 47.6656 14.5003 47.607 13.8853 47.4899V43.0967C14.3539 43.2139 14.881 43.2724 15.4668 43.2724C16.4333 43.2724 17.1508 43.0381 17.6195 42.5695C18.0881 42.0716 18.3224 41.3248 18.3224 40.329V16.7377H23.1548V40.1972C23.1548 42.716 22.5691 44.5904 21.3976 45.8205C20.2554 47.0506 18.4981 47.6656 16.1258 47.6656Z" fill="white"/>
<path d="M31.137 16.7377H37.6829L42.6911 47.4899H37.8586L36.98 41.3834V41.4712H31.4885L30.6099 47.4899H26.1288L31.137 16.7377ZM36.4088 37.2977L34.2562 22.0973H34.1683L32.0596 37.2977H36.4088Z" fill="white"/>
<path d="M46.3432 42.8331H51V47.4899H46.3432V42.8331Z" fill="#00D4FF"/>
</svg>
