<svg xmlns="http://www.w3.org/2000/svg" width="720" height="960" viewBox="0 0 720 960">
  <defs>
    <linearGradient id="bg" x1="0" x2="1" y1="0" y2="1">
      <stop offset="0" stop-color="#111820"/>
      <stop offset="1" stop-color="#050607"/>
    </linearGradient>
    <linearGradient id="gold" x1="0" x2="1">
      <stop offset="0" stop-color="#ffd35a"/>
      <stop offset="1" stop-color="#b57a17"/>
    </linearGradient>
  </defs>
  <rect width="720" height="960" fill="#080a0f"/>
  <rect x="72" y="42" width="576" height="876" rx="28" fill="url(#bg)" stroke="#273342" stroke-width="2"/>
  <rect x="112" y="86" width="496" height="72" rx="14" fill="#141c24" stroke="#314052"/>
  <text x="360" y="132" text-anchor="middle" fill="#f6d46a" font-family="Arial, sans-serif" font-size="28" font-weight="700">JOGO DE OURO</text>
  <rect x="112" y="190" width="496" height="300" rx="22" fill="#202936"/>
  <circle cx="260" cy="318" r="72" fill="url(#gold)" opacity=".9"/>
  <rect x="355" y="260" width="190" height="24" rx="12" fill="#f6d46a" opacity=".95"/>
  <rect x="355" y="306" width="160" height="18" rx="9" fill="#e8e4dc" opacity=".75"/>
  <rect x="355" y="342" width="200" height="18" rx="9" fill="#e8e4dc" opacity=".55"/>
  <rect x="355" y="378" width="130" height="18" rx="9" fill="#e8e4dc" opacity=".45"/>
  <rect x="112" y="535" width="496" height="30" rx="15" fill="#e8e4dc" opacity=".82"/>
  <rect x="112" y="592" width="420" height="22" rx="11" fill="#e8e4dc" opacity=".45"/>
  <rect x="112" y="636" width="470" height="22" rx="11" fill="#e8e4dc" opacity=".38"/>
  <rect x="112" y="680" width="380" height="22" rx="11" fill="#e8e4dc" opacity=".32"/>
  <rect x="205" y="760" width="310" height="66" rx="33" fill="#ffc72c"/>
  <text x="360" y="802" text-anchor="middle" fill="#161616" font-family="Arial, sans-serif" font-size="22" font-weight="700">CALL TO ACTION</text>
  <text x="360" y="888" text-anchor="middle" fill="#6f7b88" font-family="Arial, sans-serif" font-size="20">Preview Email 01 • clique para ver HTML</text>
</svg>
